# xmcd
#
# Track frame offsets:
#	150
#	14642
#	32345
#	58063
#	79697
#	100429
#	122092
#	140509
#	151927
#	166872
#
# Disc length: 2446 seconds
# Revision: 0
# Processed by: cddbd v1.5.2PL0 Copyright (c) Steve Scherf et al.
# Submitted via: dBpowerAMP V12.0
#
DISCID=7a098c0a
DTITLE=Eva Cassidy - Imagine
DYEAR=2002
DGENRE=Pop
TTITLE0=It Doesn't Matter Anymore
TTITLE1=Fever
TTITLE2=Who Knows Where the Time Goes
TTITLE3=You've Changed
TTITLE4=Imagine
TTITLE5=Still Not Ready
TTITLE6=Early Morning Rain
TTITLE7=Tennessee Waltz
TTITLE8=I Can Only Be Me
TTITLE9=Danny Boy
EXTD=
EXTT0=
EXTT1=
EXTT2=
EXTT3=
EXTT4=
EXTT5=
EXTT6=
EXTT7=
EXTT8=
EXTT9=
PLAYORDER=
